Patient5_TMGait_0pt45_1_left_05_EMG.mot
version=1
nRows=20
nColumns=33
inDegrees=no
endheader
time	1LAddLong	2LGlutMax	3LGlutMed	4LIliopsoas	5LSemiMemb	6LBicFemLong	7LRecFem	8LTensFascLat	9LVastMed	10LVasLat	11LGasMed	12lGasLat	13LTibAnt	14LPeroneusLong	15LSol	16LTibPost	17RAddLong	18RGlutMax	19RGlutMed	20RIliopsoas	21RSemiMemb	22RBicFemLong	23RRecFem	24RTensFascLat	25RVastMed	26RVasLat	27RGasMed	28RGasLat	29RTibAnt	30RPeroneusLong	31RSol	32RTibPost
6.8	0.075989	-0.005951	-0.035095	-0.050049	0.026703	-0.053864	0.029755	0.1207	0.005798	0.014191	-0.007782	0.01236	0.014801	0.013123	0.014801	0.079498	0.002899	-0.00061	0.45807	0.083771	-0.52429	-0.26718	0.009918	-0.48828	0.052643	0.12573	-0.021973	0.017395	-0.027008	-0.02121	0.022736	-0.011444
6.801	0.20615	0.001678	-0.027618	-0.11398	0.031891	-0.05661	0.035095	0.14801	-0.003357	0.015717	-0.005341	0.012207	0.032349	0.023041	0.014801	-0.066071	0.014801	0.005951	0.33691	-0.072327	-0.27054	-0.34012	-0.003357	-0.44861	0.047455	0.079498	-0.01358	0.041962	-0.015869	-0.018921	-0.007172	-0.017395
6.802	0.045013	0.001526	-0.013733	-0.040436	0.033112	-0.056915	0.025482	0.15915	-0.01236	0.011902	-0.003204	0.017548	0.027618	0.023499	0.010223	-0.016327	0.018463	0.00473	-0.15015	0.074768	-0.15762	-0.35324	-0.019226	-0.2887	0.021057	0.017242	-0.006714	0.070496	-0.01297	-0.016174	-0.016937	-0.010376
6.803	0.033264	0.00061	-0.000916	-0.012665	0.0177	-0.08316	0.007935	0.20294	-0.014648	0.006866	-0.006561	0.017548	0.017548	0.026093	0.024414	-0.055237	0.012054	0.004272	-0.32486	0.11932	-0.081482	-0.15274	-0.020142	-0.15106	0.05188	0.020905	-0.010071	0.062561	-0.005798	-0.018921	-0.007477	-0.001831
6.804	0.019836	-0.000458	0.013123	-0.009155	0.030365	-0.075989	0.009155	0.2359	-0.011139	0.001984	-0.005188	0.016632	-0.000458	0.028992	0.021057	0.094299	0.009918	0.011292	-0.14572	-0.060577	-0.060425	-0.026093	-0.010986	0.023193	0.072937	0.034027	-0.001068	0.025787	-0.005188	-0.019073	0.019073	0.001221
6.805	0.013733	-0.002289	0.020447	0.019073	0.027924	-0.075378	0.003357	0.2565	-0.011597	-0.000916	-0.005188	0.018616	-0.007172	0.02655	0.022583	0.018768	-0.000153	0.019531	-0.16327	0.028076	-0.071259	0.11917	-0.005798	0.22766	0.073395	0.016174	-0.00061	-0.027771	-0.004578	-0.018921	0.022736	-0.013885
6.806	0.049286	0.000763	0.029602	0.028534	0.029602	-0.067902	-0.006714	0.28885	-0.004578	0.003357	-0.000153	0.006866	-0.010986	0.011902	0.024109	0.083923	0.00946	0.033722	-0.22781	-0.054169	-0.093994	0.30853	-0.000153	0.30228	0.052185	-0.10513	-0.000305	-0.077057	-0.011444	-0.015259	0.01236	-0.012817
6.807	0.096588	-0.002289	0.041199	0.011749	0.032501	-0.059814	-0.002289	0.32196	0.000153	0.008087	-0.004883	0.007477	-0.018311	0.007629	0.022583	-0.032349	0.004883	0.031281	-0.54214	-0.065613	-0.087128	0.29266	-0.00885	0.32761	0.037537	0.023804	-0.007477	-0.057983	-0.011902	-0.021515	0.029602	-0.002136
6.808	0.11505	0.006256	0.039215	0.001526	0.033112	-0.061493	-0.010834	0.37857	0.003967	0.00061	0.002747	0.01297	-0.015259	0.00061	0.021362	0.042725	0	0.02655	-0.76385	0.16678	-0.16449	0.41122	-0.018616	0.52139	0.048828	0.059052	0.00351	0.006561	-0.015717	-0.017548	0.013428	-0.000305
6.809	0.11475	0.002136	0.02243	0.01236	0.030975	-0.061035	-0.043793	0.38162	0.005493	-0.010681	0.001373	0.010986	-0.010986	-0.00061	0.02594	-0.10544	-0.015869	0.031281	-0.63187	-0.15808	-0.177	0.34286	-0.027924	0.47485	0.066376	0.072937	0.005798	0.035858	-0.010681	-0.020752	0.003052	0.000305
6.81	0.084381	0.000305	0.002441	-0.008392	0.034332	-0.062866	-0.050659	0.38025	0.001984	-0.009155	0.00061	0.013275	-0.008392	0.001526	0.024261	-0.15152	-0.022278	0.024567	-0.43991	-0.044556	-0.015869	0.12604	-0.020905	0.38895	0.074005	-0.054779	0.004425	0.0354	-0.009918	-0.024414	0.013428	-0.003662
6.811	0.083771	0.003204	-0.001678	-0.0177	0.022125	-0.05722	-0.032349	0.41824	0.002594	-0.002441	-0.001068	0.029602	-0.012207	0.006866	0.023499	0.063629	-0.051117	0.006714	0.081635	0.059357	-0.12558	0.11108	-0.016937	0.22232	0.083313	-0.15655	0.00946	0.005646	-0.005646	-0.014343	0.019226	-0.008545
6.812	0.07431	0.000458	0.009613	-0.004425	0.015717	-0.052185	-0.021667	0.40192	0.010681	-0.007477	0.002747	0.016479	-0.00473	0.006561	0.019836	-0.13901	-0.02533	-0.015259	0.34271	-0.070953	-0.054321	-0.027771	-0.010529	0.086212	0.070343	-0.16937	-0.005798	-0.040588	-0.003052	-0.026703	0.013275	-0.003967
6.813	0.071869	0	-0.019073	0.018616	0.024109	-0.061188	-0.008087	0.39368	0.015717	-0.001831	0.002441	0.008698	0.014191	0.005341	0.023651	-0.085449	-0.020447	-0.02182	0.17425	0.081787	-0.023651	-0.055847	-0.015869	0.01236	0.076141	-0.20172	0.00885	-0.020599	-0.002594	-0.029144	0.005035	-0.005646
6.814	0.081635	-0.004883	-0.024261	0.025787	0.011444	-0.05661	-0.008392	0.41046	0.015106	-0.005035	0.001068	0.011292	0.016937	0.002747	0.014954	0.056763	-0.00061	-0.026093	0.019531	-0.020447	-0.006714	-0.001526	-0.013123	0.10422	0.15045	-0.17838	0.005341	-0.019073	-0.001068	-0.03006	-0.002441	0.005798
6.815	-0.054626	0.000763	-0.017853	0.012054	0.012512	-0.06012	-0.005035	0.41016	0.014954	-0.007477	-0.004425	0.014191	0.023499	0.013275	0.017242	0.092926	-0.00473	-0.025482	0.01709	-0.005646	0.066223	0.046082	-0.016174	0.17288	0.15091	-0.1944	-0.013428	-0.020294	-0.000153	-0.030212	-0.002899	0.012665
6.816	0.036163	-0.002594	-0.026398	0.014954	0.020447	-0.047302	-0.005646	0.38086	0.016632	-0.011444	0.003052	0.01236	0.019379	0.016785	0.017548	-0.14343	-0.016632	-0.020905	0.084991	-0.004425	0.10605	0.10376	-0.009155	0.070038	0.08255	-0.17761	-0.019836	-0.011902	-0.003357	-0.028839	0.002289	0.014343
6.817	0.035706	-0.009155	-0.040741	-0.024261	0.018616	-0.050812	-0.009003	0.37293	0.016327	-0.012207	0.004578	0.014954	0.030365	0.021057	0.025635	-0.007019	-0.016174	-0.0177	0.12054	-0.056152	0.090942	0.1503	-0.005188	0.005188	0.048676	-0.12421	-0.01709	-0.009308	-0.00351	-0.027313	0.016937	-0.00061
6.818	0.069885	-0.002594	-0.035706	-0.032654	0.011444	-0.053253	-0.004883	0.40085	0.016632	-0.007172	0.000458	0.014038	0.020599	0.019531	0.021362	-0.09613	-0.043945	-0.015564	0.21927	0.16571	0.081024	0.15396	-0.011139	0.17349	0.024872	-0.10239	-0.006866	0.006866	0.001678	-0.027466	0.020294	0.011749
6.819	0.080414	-0.005035	-0.030518	0.023804	0.015564	-0.04776	-0.006409	0.39948	0.013123	0.002289	0.004425	0.010681	0.014954	0.017242	0.02655	0.023346	-0.030518	-0.002594	0.40985	-0.026398	0.1181	0.11551	-0.020294	0.26199	-0.005646	-0.099335	-0.007935	0.006714	-0.030975	-0.032654	0.027313	0.016632
